<mxfile host="app.diagrams.net" modified="2024-01-21T18:46:38.396Z" agent="Mozilla/5.0 (Windows NT 10.0; Win64; x64) AppleWebKit/537.36 (KHTML, like Gecko) Chrome/120.0.0.0 Safari/537.36" etag="PQzs8mG2LsDBNruZuSp-" version="22.1.21" type="device">
  <diagram name="Page-1" id="cIiSb6WW9Ec4Gxy8y8p9">
    <mxGraphModel dx="1050" dy="1726" grid="1" gridSize="10" guides="1" tooltips="1" connect="1" arrows="1" fold="1" page="1" pageScale="1" pageWidth="827" pageHeight="1169" background="none" math="0" shadow="0">
      <root>
        <mxCell id="0" />
        <mxCell id="1" parent="0" />
        <mxCell id="OcWyNE0nHys7xxlKRgV0-39" style="edgeStyle=orthogonalEdgeStyle;rounded=0;orthogonalLoop=1;jettySize=auto;html=1;entryX=0;entryY=0.5;entryDx=0;entryDy=0;exitX=0;exitY=1;exitDx=0;exitDy=0;" parent="1" source="OcWyNE0nHys7xxlKRgV0-1" target="OcWyNE0nHys7xxlKRgV0-38" edge="1">
          <mxGeometry relative="1" as="geometry" />
        </mxCell>
        <mxCell id="OcWyNE0nHys7xxlKRgV0-40" style="edgeStyle=orthogonalEdgeStyle;rounded=0;orthogonalLoop=1;jettySize=auto;html=1;entryX=0;entryY=0.75;entryDx=0;entryDy=0;exitX=0;exitY=1;exitDx=0;exitDy=0;" parent="1" source="OcWyNE0nHys7xxlKRgV0-1" target="OcWyNE0nHys7xxlKRgV0-37" edge="1">
          <mxGeometry relative="1" as="geometry" />
        </mxCell>
        <mxCell id="OcWyNE0nHys7xxlKRgV0-41" style="edgeStyle=orthogonalEdgeStyle;rounded=0;orthogonalLoop=1;jettySize=auto;html=1;entryX=0;entryY=0.5;entryDx=0;entryDy=0;exitX=0;exitY=1;exitDx=0;exitDy=0;" parent="1" source="OcWyNE0nHys7xxlKRgV0-1" target="OcWyNE0nHys7xxlKRgV0-36" edge="1">
          <mxGeometry relative="1" as="geometry" />
        </mxCell>
        <mxCell id="OcWyNE0nHys7xxlKRgV0-42" style="edgeStyle=orthogonalEdgeStyle;rounded=0;orthogonalLoop=1;jettySize=auto;html=1;entryX=0;entryY=0.5;entryDx=0;entryDy=0;exitX=0;exitY=1;exitDx=0;exitDy=0;" parent="1" source="OcWyNE0nHys7xxlKRgV0-1" target="OcWyNE0nHys7xxlKRgV0-35" edge="1">
          <mxGeometry relative="1" as="geometry" />
        </mxCell>
        <mxCell id="OcWyNE0nHys7xxlKRgV0-1" value="&lt;font style=&quot;&quot; face=&quot;Times New Roman&quot;&gt;&lt;b&gt;PROJECT INITATION&lt;/b&gt;&lt;/font&gt;" style="rounded=0;whiteSpace=wrap;html=1;fillColor=#dae8fc;gradientColor=#77E0DC;strokeColor=#000000;strokeWidth=1;" parent="1" vertex="1">
          <mxGeometry x="80" y="130" width="170" height="60" as="geometry" />
        </mxCell>
        <mxCell id="OcWyNE0nHys7xxlKRgV0-25" style="edgeStyle=orthogonalEdgeStyle;rounded=0;orthogonalLoop=1;jettySize=auto;html=1;entryX=0;entryY=0.5;entryDx=0;entryDy=0;exitX=0;exitY=1;exitDx=0;exitDy=0;" parent="1" source="OcWyNE0nHys7xxlKRgV0-2" target="OcWyNE0nHys7xxlKRgV0-23" edge="1">
          <mxGeometry relative="1" as="geometry" />
        </mxCell>
        <mxCell id="OcWyNE0nHys7xxlKRgV0-26" style="edgeStyle=orthogonalEdgeStyle;rounded=0;orthogonalLoop=1;jettySize=auto;html=1;entryX=0;entryY=0.75;entryDx=0;entryDy=0;exitX=0;exitY=1;exitDx=0;exitDy=0;" parent="1" source="OcWyNE0nHys7xxlKRgV0-2" target="OcWyNE0nHys7xxlKRgV0-22" edge="1">
          <mxGeometry relative="1" as="geometry" />
        </mxCell>
        <mxCell id="OcWyNE0nHys7xxlKRgV0-27" style="edgeStyle=orthogonalEdgeStyle;rounded=0;orthogonalLoop=1;jettySize=auto;html=1;entryX=0;entryY=0.5;entryDx=0;entryDy=0;exitX=0;exitY=1;exitDx=0;exitDy=0;" parent="1" source="OcWyNE0nHys7xxlKRgV0-2" target="OcWyNE0nHys7xxlKRgV0-21" edge="1">
          <mxGeometry relative="1" as="geometry" />
        </mxCell>
        <mxCell id="OcWyNE0nHys7xxlKRgV0-2" value="&lt;font style=&quot;&quot; face=&quot;Times New Roman&quot;&gt;&lt;b&gt;REQUIREMENT GATHERING&lt;/b&gt;&lt;/font&gt;" style="rounded=0;whiteSpace=wrap;html=1;fillColor=#dae8fc;gradientColor=#77E0DC;strokeColor=#000000;strokeWidth=1;" parent="1" vertex="1">
          <mxGeometry x="270" y="130" width="190" height="60" as="geometry" />
        </mxCell>
        <mxCell id="OcWyNE0nHys7xxlKRgV0-32" style="edgeStyle=orthogonalEdgeStyle;rounded=0;orthogonalLoop=1;jettySize=auto;html=1;entryX=0;entryY=0.5;entryDx=0;entryDy=0;exitX=0;exitY=1;exitDx=0;exitDy=0;" parent="1" source="OcWyNE0nHys7xxlKRgV0-3" target="OcWyNE0nHys7xxlKRgV0-30" edge="1">
          <mxGeometry relative="1" as="geometry" />
        </mxCell>
        <mxCell id="OcWyNE0nHys7xxlKRgV0-33" style="edgeStyle=orthogonalEdgeStyle;rounded=0;orthogonalLoop=1;jettySize=auto;html=1;entryX=0;entryY=0.75;entryDx=0;entryDy=0;exitX=0;exitY=1;exitDx=0;exitDy=0;" parent="1" source="OcWyNE0nHys7xxlKRgV0-3" target="OcWyNE0nHys7xxlKRgV0-29" edge="1">
          <mxGeometry relative="1" as="geometry" />
        </mxCell>
        <mxCell id="OcWyNE0nHys7xxlKRgV0-34" style="edgeStyle=orthogonalEdgeStyle;rounded=0;orthogonalLoop=1;jettySize=auto;html=1;entryX=0;entryY=0.5;entryDx=0;entryDy=0;exitX=0;exitY=1;exitDx=0;exitDy=0;" parent="1" source="OcWyNE0nHys7xxlKRgV0-3" target="OcWyNE0nHys7xxlKRgV0-28" edge="1">
          <mxGeometry relative="1" as="geometry" />
        </mxCell>
        <mxCell id="OcWyNE0nHys7xxlKRgV0-3" value="&lt;b&gt;&lt;font face=&quot;Times New Roman&quot;&gt;SYSTEM DESIGN&lt;/font&gt;&lt;/b&gt;" style="rounded=0;whiteSpace=wrap;html=1;fillColor=#dae8fc;gradientColor=#77E0DC;strokeColor=#000000;strokeWidth=1;" parent="1" vertex="1">
          <mxGeometry x="470" y="130" width="160" height="60" as="geometry" />
        </mxCell>
        <mxCell id="OcWyNE0nHys7xxlKRgV0-62" style="edgeStyle=orthogonalEdgeStyle;rounded=0;orthogonalLoop=1;jettySize=auto;html=1;entryX=0;entryY=0.5;entryDx=0;entryDy=0;exitX=0;exitY=1;exitDx=0;exitDy=0;" parent="1" source="OcWyNE0nHys7xxlKRgV0-4" target="OcWyNE0nHys7xxlKRgV0-61" edge="1">
          <mxGeometry relative="1" as="geometry" />
        </mxCell>
        <mxCell id="OcWyNE0nHys7xxlKRgV0-63" style="edgeStyle=orthogonalEdgeStyle;rounded=0;orthogonalLoop=1;jettySize=auto;html=1;entryX=0;entryY=0.75;entryDx=0;entryDy=0;exitX=0;exitY=1;exitDx=0;exitDy=0;" parent="1" source="OcWyNE0nHys7xxlKRgV0-4" target="OcWyNE0nHys7xxlKRgV0-60" edge="1">
          <mxGeometry relative="1" as="geometry" />
        </mxCell>
        <mxCell id="OcWyNE0nHys7xxlKRgV0-64" style="edgeStyle=orthogonalEdgeStyle;rounded=0;orthogonalLoop=1;jettySize=auto;html=1;entryX=0;entryY=0.5;entryDx=0;entryDy=0;exitX=0;exitY=1;exitDx=0;exitDy=0;" parent="1" source="OcWyNE0nHys7xxlKRgV0-4" target="OcWyNE0nHys7xxlKRgV0-59" edge="1">
          <mxGeometry relative="1" as="geometry" />
        </mxCell>
        <mxCell id="OcWyNE0nHys7xxlKRgV0-66" style="edgeStyle=orthogonalEdgeStyle;rounded=0;orthogonalLoop=1;jettySize=auto;html=1;entryX=0;entryY=0.5;entryDx=0;entryDy=0;exitX=0;exitY=1;exitDx=0;exitDy=0;" parent="1" source="OcWyNE0nHys7xxlKRgV0-4" target="OcWyNE0nHys7xxlKRgV0-65" edge="1">
          <mxGeometry relative="1" as="geometry" />
        </mxCell>
        <mxCell id="OcWyNE0nHys7xxlKRgV0-4" value="&lt;b&gt;&lt;font face=&quot;Times New Roman&quot;&gt;DEVELOPMENT&lt;/font&gt;&lt;/b&gt;" style="rounded=0;whiteSpace=wrap;html=1;fillColor=#dae8fc;gradientColor=#77E0DC;strokeColor=#000000;strokeWidth=1;" parent="1" vertex="1">
          <mxGeometry x="650" y="130" width="170" height="60" as="geometry" />
        </mxCell>
        <mxCell id="OcWyNE0nHys7xxlKRgV0-48" style="edgeStyle=orthogonalEdgeStyle;rounded=0;orthogonalLoop=1;jettySize=auto;html=1;entryX=0;entryY=0.5;entryDx=0;entryDy=0;exitX=0;exitY=1;exitDx=0;exitDy=0;" parent="1" source="OcWyNE0nHys7xxlKRgV0-5" target="OcWyNE0nHys7xxlKRgV0-47" edge="1">
          <mxGeometry relative="1" as="geometry" />
        </mxCell>
        <mxCell id="OcWyNE0nHys7xxlKRgV0-49" style="edgeStyle=orthogonalEdgeStyle;rounded=0;orthogonalLoop=1;jettySize=auto;html=1;entryX=0;entryY=0.5;entryDx=0;entryDy=0;exitX=0;exitY=1;exitDx=0;exitDy=0;" parent="1" source="OcWyNE0nHys7xxlKRgV0-5" target="OcWyNE0nHys7xxlKRgV0-46" edge="1">
          <mxGeometry relative="1" as="geometry" />
        </mxCell>
        <mxCell id="OcWyNE0nHys7xxlKRgV0-50" style="edgeStyle=orthogonalEdgeStyle;rounded=0;orthogonalLoop=1;jettySize=auto;html=1;entryX=0;entryY=0.75;entryDx=0;entryDy=0;exitX=0;exitY=1;exitDx=0;exitDy=0;" parent="1" source="OcWyNE0nHys7xxlKRgV0-5" target="OcWyNE0nHys7xxlKRgV0-45" edge="1">
          <mxGeometry relative="1" as="geometry" />
        </mxCell>
        <mxCell id="OcWyNE0nHys7xxlKRgV0-5" value="&lt;b&gt;&lt;font face=&quot;Times New Roman&quot;&gt;TESTING&lt;/font&gt;&lt;/b&gt;" style="rounded=0;whiteSpace=wrap;html=1;fillColor=#dae8fc;gradientColor=#77E0DC;strokeColor=#000000;strokeWidth=1;" parent="1" vertex="1">
          <mxGeometry x="840" y="130" width="170" height="60" as="geometry" />
        </mxCell>
        <mxCell id="OcWyNE0nHys7xxlKRgV0-53" style="edgeStyle=orthogonalEdgeStyle;rounded=0;orthogonalLoop=1;jettySize=auto;html=1;entryX=0;entryY=0.5;entryDx=0;entryDy=0;exitX=0;exitY=1;exitDx=0;exitDy=0;" parent="1" source="OcWyNE0nHys7xxlKRgV0-6" target="OcWyNE0nHys7xxlKRgV0-52" edge="1">
          <mxGeometry relative="1" as="geometry" />
        </mxCell>
        <mxCell id="OcWyNE0nHys7xxlKRgV0-54" style="edgeStyle=orthogonalEdgeStyle;rounded=0;orthogonalLoop=1;jettySize=auto;html=1;entryX=0;entryY=0.75;entryDx=0;entryDy=0;exitX=0;exitY=1;exitDx=0;exitDy=0;" parent="1" source="OcWyNE0nHys7xxlKRgV0-6" target="OcWyNE0nHys7xxlKRgV0-51" edge="1">
          <mxGeometry relative="1" as="geometry" />
        </mxCell>
        <mxCell id="OcWyNE0nHys7xxlKRgV0-6" value="&lt;b&gt;&lt;font face=&quot;Times New Roman&quot;&gt;DEPLOYMENT&lt;/font&gt;&lt;/b&gt;" style="rounded=0;whiteSpace=wrap;html=1;fillColor=#dae8fc;gradientColor=#77E0DC;strokeColor=#000000;strokeWidth=1;" parent="1" vertex="1">
          <mxGeometry x="1020" y="130" width="170" height="60" as="geometry" />
        </mxCell>
        <mxCell id="OcWyNE0nHys7xxlKRgV0-57" style="edgeStyle=orthogonalEdgeStyle;rounded=0;orthogonalLoop=1;jettySize=auto;html=1;entryX=0;entryY=0.5;entryDx=0;entryDy=0;exitX=0;exitY=1;exitDx=0;exitDy=0;" parent="1" source="OcWyNE0nHys7xxlKRgV0-7" target="OcWyNE0nHys7xxlKRgV0-56" edge="1">
          <mxGeometry relative="1" as="geometry" />
        </mxCell>
        <mxCell id="OcWyNE0nHys7xxlKRgV0-58" style="edgeStyle=orthogonalEdgeStyle;rounded=0;orthogonalLoop=1;jettySize=auto;html=1;entryX=0;entryY=0.5;entryDx=0;entryDy=0;exitX=0;exitY=1;exitDx=0;exitDy=0;" parent="1" source="OcWyNE0nHys7xxlKRgV0-7" target="OcWyNE0nHys7xxlKRgV0-55" edge="1">
          <mxGeometry relative="1" as="geometry" />
        </mxCell>
        <mxCell id="OcWyNE0nHys7xxlKRgV0-7" value="&lt;b&gt;&lt;font face=&quot;Times New Roman&quot;&gt;MAINTENANCE &amp;amp; SUPPORT&lt;/font&gt;&lt;/b&gt;" style="rounded=0;whiteSpace=wrap;html=1;fillColor=#dae8fc;gradientColor=#77E0DC;strokeColor=#000000;strokeWidth=1;" parent="1" vertex="1">
          <mxGeometry x="1215" y="130" width="175" height="60" as="geometry" />
        </mxCell>
        <mxCell id="OcWyNE0nHys7xxlKRgV0-8" value="&lt;b&gt;&lt;font style=&quot;font-size: 17px;&quot; face=&quot;Helvetica&quot;&gt;COLLEGE MANAGEMENT SYSTEM&lt;/font&gt;&lt;/b&gt;" style="rounded=0;whiteSpace=wrap;html=1;fillColor=#dae8fc;strokeColor=#6c8ebf;gradientColor=#77E0DC;gradientDirection=north;strokeWidth=3;" parent="1" vertex="1">
          <mxGeometry x="540" y="-50" width="380" height="60" as="geometry" />
        </mxCell>
        <mxCell id="OcWyNE0nHys7xxlKRgV0-10" value="" style="endArrow=none;html=1;rounded=0;" parent="1" edge="1">
          <mxGeometry width="50" height="50" relative="1" as="geometry">
            <mxPoint x="150" y="80" as="sourcePoint" />
            <mxPoint x="1315" y="80" as="targetPoint" />
          </mxGeometry>
        </mxCell>
        <mxCell id="OcWyNE0nHys7xxlKRgV0-12" value="" style="endArrow=classic;html=1;rounded=0;" parent="1" edge="1">
          <mxGeometry width="50" height="50" relative="1" as="geometry">
            <mxPoint x="150" y="80" as="sourcePoint" />
            <mxPoint x="150" y="130" as="targetPoint" />
          </mxGeometry>
        </mxCell>
        <mxCell id="OcWyNE0nHys7xxlKRgV0-14" value="" style="endArrow=classic;html=1;rounded=0;" parent="1" edge="1">
          <mxGeometry width="50" height="50" relative="1" as="geometry">
            <mxPoint x="354.28999999999996" y="80" as="sourcePoint" />
            <mxPoint x="354.28999999999996" y="130" as="targetPoint" />
          </mxGeometry>
        </mxCell>
        <mxCell id="OcWyNE0nHys7xxlKRgV0-15" value="" style="endArrow=classic;html=1;rounded=0;" parent="1" edge="1">
          <mxGeometry width="50" height="50" relative="1" as="geometry">
            <mxPoint x="550" y="80" as="sourcePoint" />
            <mxPoint x="550" y="130" as="targetPoint" />
          </mxGeometry>
        </mxCell>
        <mxCell id="OcWyNE0nHys7xxlKRgV0-16" value="" style="endArrow=classic;html=1;rounded=0;" parent="1" edge="1">
          <mxGeometry width="50" height="50" relative="1" as="geometry">
            <mxPoint x="730" y="80" as="sourcePoint" />
            <mxPoint x="730" y="130" as="targetPoint" />
          </mxGeometry>
        </mxCell>
        <mxCell id="OcWyNE0nHys7xxlKRgV0-17" value="" style="endArrow=classic;html=1;rounded=0;" parent="1" edge="1">
          <mxGeometry width="50" height="50" relative="1" as="geometry">
            <mxPoint x="924.29" y="80" as="sourcePoint" />
            <mxPoint x="924.29" y="130" as="targetPoint" />
          </mxGeometry>
        </mxCell>
        <mxCell id="OcWyNE0nHys7xxlKRgV0-18" value="" style="endArrow=classic;html=1;rounded=0;" parent="1" edge="1">
          <mxGeometry width="50" height="50" relative="1" as="geometry">
            <mxPoint x="1104.29" y="80" as="sourcePoint" />
            <mxPoint x="1104.29" y="130" as="targetPoint" />
          </mxGeometry>
        </mxCell>
        <mxCell id="OcWyNE0nHys7xxlKRgV0-19" value="" style="endArrow=classic;html=1;rounded=0;" parent="1" edge="1">
          <mxGeometry width="50" height="50" relative="1" as="geometry">
            <mxPoint x="1314.29" y="80" as="sourcePoint" />
            <mxPoint x="1314.29" y="130" as="targetPoint" />
          </mxGeometry>
        </mxCell>
        <mxCell id="OcWyNE0nHys7xxlKRgV0-21" value="&lt;b&gt;User Requirement&lt;/b&gt;" style="rounded=0;whiteSpace=wrap;html=1;fillColor=#b0e3e6;strokeColor=#000000;strokeWidth=1;" parent="1" vertex="1">
          <mxGeometry x="300" y="225" width="150" height="60" as="geometry" />
        </mxCell>
        <mxCell id="OcWyNE0nHys7xxlKRgV0-22" value="&lt;b&gt;Functional Requirements&lt;/b&gt;" style="rounded=0;whiteSpace=wrap;html=1;fillColor=#b0e3e6;strokeColor=#000000;strokeWidth=1;" parent="1" vertex="1">
          <mxGeometry x="300" y="320" width="150" height="60" as="geometry" />
        </mxCell>
        <mxCell id="OcWyNE0nHys7xxlKRgV0-23" value="&lt;b&gt;Non-Functional Requirements&lt;/b&gt;" style="rounded=0;whiteSpace=wrap;html=1;fillColor=#b0e3e6;strokeColor=#000000;strokeWidth=1;" parent="1" vertex="1">
          <mxGeometry x="300" y="420" width="150" height="60" as="geometry" />
        </mxCell>
        <mxCell id="OcWyNE0nHys7xxlKRgV0-28" value="&lt;b&gt;System architecture&lt;/b&gt;" style="rounded=0;whiteSpace=wrap;html=1;fillColor=#b0e3e6;strokeColor=#000000;strokeWidth=1;" parent="1" vertex="1">
          <mxGeometry x="490" y="220" width="140" height="60" as="geometry" />
        </mxCell>
        <mxCell id="OcWyNE0nHys7xxlKRgV0-29" value="&lt;b&gt;Data modeling&lt;/b&gt;" style="rounded=0;whiteSpace=wrap;html=1;fillColor=#b0e3e6;strokeColor=#000000;strokeWidth=1;" parent="1" vertex="1">
          <mxGeometry x="490" y="310" width="140" height="60" as="geometry" />
        </mxCell>
        <mxCell id="OcWyNE0nHys7xxlKRgV0-30" value="&lt;b&gt;UI &amp;amp; UX Design&lt;/b&gt;" style="rounded=0;whiteSpace=wrap;html=1;fillColor=#b0e3e6;strokeColor=#000000;strokeWidth=1;" parent="1" vertex="1">
          <mxGeometry x="490" y="400" width="140" height="60" as="geometry" />
        </mxCell>
        <mxCell id="OcWyNE0nHys7xxlKRgV0-35" value="&lt;b&gt;Define project scope and objectives&lt;/b&gt;" style="rounded=0;whiteSpace=wrap;html=1;fillColor=#b0e3e6;strokeColor=#000000;strokeWidth=1;" parent="1" vertex="1">
          <mxGeometry x="105" y="220" width="135" height="60" as="geometry" />
        </mxCell>
        <mxCell id="OcWyNE0nHys7xxlKRgV0-36" value="&lt;b&gt;Conduct feasibility study&lt;/b&gt;" style="rounded=0;whiteSpace=wrap;html=1;fillColor=#b0e3e6;strokeColor=#000000;strokeWidth=1;" parent="1" vertex="1">
          <mxGeometry x="105" y="310" width="135" height="60" as="geometry" />
        </mxCell>
        <mxCell id="OcWyNE0nHys7xxlKRgV0-37" value="&lt;b&gt;Develop project plan&lt;/b&gt;" style="rounded=0;whiteSpace=wrap;html=1;fillColor=#b0e3e6;strokeColor=#000000;strokeWidth=1;" parent="1" vertex="1">
          <mxGeometry x="105" y="390" width="135" height="60" as="geometry" />
        </mxCell>
        <mxCell id="OcWyNE0nHys7xxlKRgV0-38" value="&lt;b&gt;Identify Stakeholders&lt;/b&gt;" style="rounded=0;whiteSpace=wrap;html=1;fillColor=#b0e3e6;strokeColor=#000000;strokeWidth=1;" parent="1" vertex="1">
          <mxGeometry x="105" y="470" width="135" height="60" as="geometry" />
        </mxCell>
        <mxCell id="OcWyNE0nHys7xxlKRgV0-45" value="&lt;b&gt;Unit testing&lt;/b&gt;" style="rounded=0;whiteSpace=wrap;html=1;fillColor=#b0e3e6;strokeColor=#000000;strokeWidth=1;" parent="1" vertex="1">
          <mxGeometry x="870" y="220" width="140" height="60" as="geometry" />
        </mxCell>
        <mxCell id="OcWyNE0nHys7xxlKRgV0-46" value="&lt;b&gt;Integration testing&lt;/b&gt;" style="rounded=0;whiteSpace=wrap;html=1;fillColor=#b0e3e6;strokeColor=#000000;strokeWidth=1;" parent="1" vertex="1">
          <mxGeometry x="870" y="300" width="140" height="60" as="geometry" />
        </mxCell>
        <mxCell id="OcWyNE0nHys7xxlKRgV0-47" value="&lt;b&gt;System testing&lt;/b&gt;" style="rounded=0;whiteSpace=wrap;html=1;fillColor=#b0e3e6;strokeColor=#000000;strokeWidth=1;" parent="1" vertex="1">
          <mxGeometry x="870" y="380" width="140" height="60" as="geometry" />
        </mxCell>
        <mxCell id="OcWyNE0nHys7xxlKRgV0-51" value="&lt;b&gt;System Deployment&lt;/b&gt;" style="rounded=0;whiteSpace=wrap;html=1;fillColor=#b0e3e6;strokeColor=#000000;strokeWidth=1;" parent="1" vertex="1">
          <mxGeometry x="1050" y="220" width="140" height="60" as="geometry" />
        </mxCell>
        <mxCell id="OcWyNE0nHys7xxlKRgV0-52" value="&lt;b&gt;Go-live support&lt;/b&gt;" style="rounded=0;whiteSpace=wrap;html=1;fillColor=#b0e3e6;strokeColor=#000000;strokeWidth=1;" parent="1" vertex="1">
          <mxGeometry x="1050" y="300" width="140" height="60" as="geometry" />
        </mxCell>
        <mxCell id="OcWyNE0nHys7xxlKRgV0-55" value="&lt;b&gt;System maintenance&lt;/b&gt;" style="rounded=0;whiteSpace=wrap;html=1;fillColor=#b0e3e6;strokeColor=#000000;strokeWidth=1;" parent="1" vertex="1">
          <mxGeometry x="1245" y="230" width="140" height="50" as="geometry" />
        </mxCell>
        <mxCell id="OcWyNE0nHys7xxlKRgV0-56" value="&lt;b&gt;User support&lt;/b&gt;" style="rounded=0;whiteSpace=wrap;html=1;fillColor=#b0e3e6;strokeColor=#000000;strokeWidth=1;" parent="1" vertex="1">
          <mxGeometry x="1245" y="305" width="140" height="50" as="geometry" />
        </mxCell>
        <mxCell id="OcWyNE0nHys7xxlKRgV0-59" value="&lt;b&gt;Frontend Development&lt;/b&gt;" style="rounded=0;whiteSpace=wrap;html=1;fillColor=#b0e3e6;strokeColor=#000000;strokeWidth=1;" parent="1" vertex="1">
          <mxGeometry x="670" y="220" width="150" height="60" as="geometry" />
        </mxCell>
        <mxCell id="OcWyNE0nHys7xxlKRgV0-60" value="&lt;b&gt;Backend Development&lt;/b&gt;" style="rounded=0;whiteSpace=wrap;html=1;fillColor=#b0e3e6;strokeColor=#000000;strokeWidth=1;" parent="1" vertex="1">
          <mxGeometry x="670" y="305" width="150" height="60" as="geometry" />
        </mxCell>
        <mxCell id="OcWyNE0nHys7xxlKRgV0-61" value="&lt;b&gt;System integration&lt;/b&gt;" style="rounded=0;whiteSpace=wrap;html=1;fillColor=#b0e3e6;strokeColor=#000000;strokeWidth=1;" parent="1" vertex="1">
          <mxGeometry x="670" y="390" width="150" height="60" as="geometry" />
        </mxCell>
        <mxCell id="OcWyNE0nHys7xxlKRgV0-65" value="&lt;b&gt;Security implementation&lt;/b&gt;" style="rounded=0;whiteSpace=wrap;html=1;fillColor=#b0e3e6;strokeColor=#000000;strokeWidth=1;" parent="1" vertex="1">
          <mxGeometry x="670" y="470" width="150" height="60" as="geometry" />
        </mxCell>
        <mxCell id="OcWyNE0nHys7xxlKRgV0-68" value="" style="endArrow=none;html=1;rounded=0;entryX=0.5;entryY=1;entryDx=0;entryDy=0;" parent="1" target="OcWyNE0nHys7xxlKRgV0-8" edge="1">
          <mxGeometry width="50" height="50" relative="1" as="geometry">
            <mxPoint x="730" y="80" as="sourcePoint" />
            <mxPoint x="780" y="30" as="targetPoint" />
          </mxGeometry>
        </mxCell>
      </root>
    </mxGraphModel>
  </diagram>
</mxfile>
